<svg id="Capa_1" enable-background="new 0 0 512 512" height="512" viewBox="0 0 512 512" width="512" xmlns="http://www.w3.org/2000/svg" xmlns:xlink="http://www.w3.org/1999/xlink"><linearGradient id="SVGID_1_" gradientUnits="userSpaceOnUse" x1="256" x2="256" y1="481" y2="31"><stop offset="0" stop-color="#5558ff"/><stop offset="1" stop-color="#00c0ff"/></linearGradient><g><g><path d="m497 91h-196v-45c0-8.291-6.709-15-15-15h-60c-8.291 0-15 6.709-15 15v45h-196c-8.291 0-15 6.709-15 15v360c0 8.291 6.709 15 15 15h482c8.291 0 15-6.709 15-15v-360c0-8.291-6.709-15-15-15zm-256-30h30v90h-30zm241 390h-452v-330h181v30h-15c-8.291 0-15 6.709-15 15s6.709 15 15 15h120c8.291 0 15-6.709 15-15s-6.709-15-15-15h-15v-30h181zm-271-180c0-33.091-26.909-60-60-60s-60 26.909-60 60 26.909 60 60 60 60-26.909 60-60zm-60 30c-16.538 0-30-13.462-30-30s13.462-30 30-30 30 13.462 30 30-13.462 30-30 30zm120-45c0 8.291 6.709 15 15 15h150c8.291 0 15-6.709 15-15s-6.709-15-15-15h-150c-8.291 0-15 6.709-15 15zm165 45h-150c-8.291 0-15 6.709-15 15s6.709 15 15 15h150c8.291 0 15-6.709 15-15s-6.709-15-15-15zm-30 60h-90c-8.291 0-15 6.709-15 15s6.709 15 15 15h90c8.291 0 15-6.709 15-15s-6.709-15-15-15zm-240-30h-15-15c-41.353 0-75 33.647-75 75 0 8.291 6.709 15 15 15h150c8.291 0 15-6.709 15-15 0-41.353-33.647-75-75-75zm-72.437 60c6.196-17.461 22.881-30 42.437-30h30c19.556 0 36.24 12.539 42.437 30z" fill="url(#SVGID_1_)"/></g></g></svg>